<?xml version="1.0" encoding="UTF-8" standalone="no"?><!-- Generator: Gravit.io --><svg xmlns="http://www.w3.org/2000/svg" xmlns:xlink="http://www.w3.org/1999/xlink" style="isolation:isolate" viewBox="0 0 288 155" width="288pt" height="155pt"><defs><clipPath id="_clipPath_VIw6HpeHnQJ1c6HQ7oHjudiU239kr8IY"><rect width="288" height="155"/></clipPath></defs><g clip-path="url(#_clipPath_VIw6HpeHnQJ1c6HQ7oHjudiU239kr8IY)"><g><path d=" M 14.635 13 L 14.635 139.725 L 146.64 139.725 L 273.365 13 L 14.635 13 Z  M 53.698 44.681 C 71.667 44.681 77.48 48.905 77.48 48.905 C 77.48 48.905 74.307 56.826 72.717 61.039 C 67.437 58.932 46.316 55.242 46.316 63.162 C 46.316 66.34 47.372 68.442 63.213 72.138 C 69.539 73.722 79.054 76.901 81.155 86.405 L 97.529 44.681 L 116.01 44.681 L 136.08 94.843 L 136.08 44.681 L 159.841 44.681 C 173.041 44.681 183.601 55.242 183.601 68.442 C 183.601 81.642 173.041 92.203 159.841 92.203 L 151.92 92.203 L 151.92 108.043 L 122.879 108.043 L 119.722 98.539 C 116.01 100.123 111.78 101.179 107.039 101.179 C 102.297 101.179 98.062 100.123 94.356 98.539 L 91.198 108.043 L 72.717 108.043 L 75.358 101.707 C 70.616 105.403 63.213 108.043 53.698 108.043 C 36.295 108.043 30.476 103.281 30.476 103.281 L 34.7 89.563 C 44.732 95.899 62.674 94.843 62.674 89.563 C 62.674 84.283 54.775 83.765 44.215 80.586 C 34.167 77.418 30.476 69.498 30.476 62.65 C 30.476 55.78 35.756 44.681 53.698 44.681 Z  M 151.92 60.522 L 151.92 76.362 L 159.841 76.362 C 164.065 76.362 167.761 72.666 167.761 68.442 C 167.761 64.218 164.065 60.522 159.841 60.522 L 151.92 60.522 Z  M 107.039 62.644 L 99.118 85.339 C 101.22 86.928 103.86 87.445 107.039 87.445 C 110.217 87.445 112.857 86.928 114.959 85.339 L 107.039 62.644 Z " fill="rgb(255,255,255)"/></g></g></svg>