<?xml version="1.0" encoding="UTF-8"?><svg xmlns="http://www.w3.org/2000/svg" xmlns:xlink="http://www.w3.org/1999/xlink" viewBox="0 0 50 50" version="1.1"><path d="M1 12v24h25l24-24zm7.398 6c3.403 0 4.504.8 4.504.8s-.601 1.5-.902 2.298C11 20.699 7 20 7 21.5c0 .602.2 1 3.2 1.7 1.198.3 3 .902 3.398 2.702L16.699 18h3.5L24 27.5V18h4.5c2.5 0 4.5 2 4.5 4.5S31 27 28.5 27H27v3h-5.5l-.598-1.8c-.703.3-1.504.5-2.402.5-.898 0-1.7-.2-2.402-.5L15.5 30H12l.5-1.2c-.898.7-2.3 1.2-4.102 1.2C5.102 30 4 29.098 4 29.098l.8-2.598c1.9 1.2 5.298 1 5.298 0s-1.496-1.098-3.496-1.7C4.699 24.2 4 22.7 4 21.403 4 20.102 5 18 8.398 18zM27 21v3h1.5c.8 0 1.5-.7 1.5-1.5s-.7-1.5-1.5-1.5zm-8.5.402L17 25.7c.398.301.898.399 1.5.399s1.102-.098 1.5-.399z" id="surface1"/><metadata><rdf:RDF xmlns:rdf="http://www.w3.org/1999/02/22-rdf-syntax-ns#" xmlns:rdfs="http://www.w3.org/2000/01/rdf-schema#" xmlns:dc="http://purl.org/dc/elements/1.1/"><rdf:Description about="https://iconscout.com/legal#licenses" dc:title="sap,filled" dc:description="sap,filled" dc:publisher="Iconscout" dc:date="2017-12-09" dc:format="image/svg+xml" dc:language="en"><dc:creator><rdf:Bag><rdf:li>Icons8</rdf:li></rdf:Bag></dc:creator></rdf:Description></rdf:RDF></metadata></svg>